<svg width="512" height="512" viewBox="0 0 24 24" xmlns="http://www.w3.org/2000/svg" data-name="Layer 1">

 <g>
  <title>Layer 1</title>
  <path id="svg_1" d="m14,0zm9.093,16.739a3.1,3.1 0 0 1 0,4.378l-0.91,1.049c-8.19,7.841 -28.12,-12.084 -20.4,-20.3l1.15,-1a3.081,3.081 0 0 1 4.327,0.04c0.031,0.031 1.884,2.438 1.884,2.438a3.1,3.1 0 0 1 -0.007,4.282l-1.158,1.456a12.781,12.781 0 0 0 6.931,6.945l1.465,-1.165a3.1,3.1 0 0 1 4.281,-0.006s2.406,1.852 2.437,1.883zm-1.376,1.454s-2.393,-1.841 -2.424,-1.872a1.1,1.1 0 0 0 -1.549,0c-0.027,0.028 -2.044,1.635 -2.044,1.635a1,1 0 0 1 -0.979,0.152a15.009,15.009 0 0 1 -8.821,-8.808a1,1 0 0 1 0.145,-1s1.607,-2.018 1.634,-2.044a1.1,1.1 0 0 0 0,-1.549c-0.031,-0.03 -1.872,-2.425 -1.872,-2.425a1.1,1.1 0 0 0 -1.51,0.039l-1.15,1c-5.642,6.784 11.629,23.097 17.574,17.479l0.911,-1.05a1.121,1.121 0 0 0 0.085,-1.557z"/>
 </g>
</svg>