<?xml version="1.0" encoding="UTF-8"?>
<!DOCTYPE svg PUBLIC "-//W3C//DTD SVG 1.1//EN" "http://www.w3.org/Graphics/SVG/1.1/DTD/svg11.dtd">
<!-- Creator: CorelDRAW -->
<svg xmlns="http://www.w3.org/2000/svg" xml:space="preserve" width="98.6336mm" height="73.0954mm" style="shape-rendering:geometricPrecision; text-rendering:geometricPrecision; image-rendering:optimizeQuality; fill-rule:evenodd; clip-rule:evenodd"
viewBox="0 0 98.6336 73.0954"
 xmlns:xlink="http://www.w3.org/1999/xlink">
 <defs>
  <style type="text/css">
   <![CDATA[
    .fil0 {fill:white}
    .fil1 {fill:#33BCD7}
   ]]>
  </style>
 </defs>
 <g id="Слой_x0020_1">
  <metadata id="CorelCorpID_0Corel-Layer"/>
  <g id="_121681432">
   <path id="_121682296" class="fil0" d="M32.9971 24.9944l32.6394 0c2.2746,0 4.1354,1.861 4.1354,4.1355l0 18.5208c0,2.2745 -1.8609,4.1355 -4.1354,4.1355l-32.6394 0c-2.2745,0 -4.1354,-1.8609 -4.1354,-4.1355l0 -18.5208c0,-2.2746 1.8608,-4.1355 4.1354,-4.1355zm0 1.781c-1.2916,0 -2.3544,1.0629 -2.3544,2.3545l0 18.5208c0,1.2915 1.063,2.3545 2.3544,2.3545l32.6394 0c1.2914,0 2.3544,-1.063 2.3544,-2.3545l0 -18.5208c0,-1.2915 -1.063,-2.3545 -2.3544,-2.3545l-32.6394 0z"/>
   <path id="_121678192" class="fil1" d="M32.728 28.8607l0 19.0591 33.1776 0 0 -19.0591 -33.1776 0zm0.785 0.7851l31.6076 0 0 17.489 -31.6076 0 0 -17.489z"/>
   <path id="_121678768" class="fil0" d="M32.9973 50.0052l16.3196 0 16.3197 0c2.2746,0 4.8773,1.7871 5.7843,3.9717l3.3956 8.1783c0.9069,2.1845 -0.2122,3.9717 -2.4866,3.9717l-23.013 0 -23.0128 0c-2.2749,0 -3.394,-1.7872 -2.4869,-3.9717l3.3954 -8.1783c0.9073,-2.1846 3.5101,-3.9717 5.7847,-3.9717zm16.3196 1.7105l-17.03 0c-1.2911,0 -2.7784,1.0209 -3.2929,2.2612l-3.3957 8.1783c-0.5152,1.2402 0.124,2.2612 1.4158,2.2612l22.3028 0 22.3029 0c1.2914,0 1.9306,-1.021 1.4157,-2.2612l-3.3956 -8.1783c-0.5149,-1.2403 -2.0017,-2.2612 -3.2932,-2.2612l-17.0298 0z"/>
   <rect id="_121682752" class="fil0" x="25.3316" y="59.4579" width="47.9703" height="2.05428"/>
   <path id="_121678096" class="fil0" d="M32.0302 53.491c-0.1762,0.3189 -0.3536,0.6379 -0.5294,0.9569 -0.1998,0.3625 -0.4009,0.7242 -0.6021,1.086 0.8247,0 1.6493,0 2.4739,0l0.2147 0 0.09 -0.1923c0.2021,-0.4314 0.3974,-0.8658 0.5962,-1.2987 0.0841,-0.1835 0.1674,-0.368 0.2511,-0.5519l-2.4944 0zm0.7105 4.2627l2.9319 0 0.2784 -0.7499c0.1596,-0.4309 0.3189,-0.8619 0.4802,-1.2922l-0.1147 0c-0.8013,0 -1.6026,0 -2.4038,0l-0.2146 0 -0.0903 0.1924c-0.203,0.4334 -0.406,0.8669 -0.6092,1.3003l-0.2579 0.5494zm6.0486 0l2.9589 0c0.0479,-0.2375 0.0959,-0.4748 0.1448,-0.7121 0.0895,-0.4332 0.1748,-0.8671 0.264,-1.3002l0.006 -0.0298 -0.1658 0c-0.8026,0 -1.6053,0 -2.4079,0l-0.1871 0 -0.0472 0.1568c-0.13,0.4334 -0.2598,0.8669 -0.3897,1.3003l-0.176 0.585zm4.796 0l11.5599 0c-0.0356,-0.2056 -0.0708,-0.4108 -0.1054,-0.6164 -0.0732,-0.4334 -0.1462,-0.8668 -0.2194,-1.3002l-0.0514 -0.3032 0.3075 0c0.4129,0 0.8258,0 1.2386,0l0.0606 0 -0.0059 -0.0274c-0.0936,-0.4334 -0.1888,-0.8664 -0.2841,-1.2994 -0.0525,-0.2386 -0.1042,-0.4774 -0.1559,-0.7161l-2.5522 0 0.0769 0.6289c0.0527,0.4335 0.1056,0.867 0.1583,1.3004l0.0354 0.2913 -0.2933 0c-0.8027,0 -1.6053,0 -2.408,0l-0.2479 0 -0.0117 -0.2477c-0.0203,-0.4335 -0.0405,-0.867 -0.0608,-1.3004 -0.0104,-0.2242 -0.0225,-0.4485 -0.034,-0.6725l-2.5647 0c-0.0116,0.224 -0.0227,0.4483 -0.0331,0.6725 -0.0203,0.4335 -0.0406,0.867 -0.061,1.3004l-0.0117 0.2477 -0.2479 0c-0.8013,0 -1.6026,0 -2.4039,0l-0.2933 0 0.0353 -0.2913c0.0527,-0.4329 0.1036,-0.866 0.1543,-1.2993 0.0247,-0.21 0.0501,-0.4201 0.0753,-0.63l-2.5527 0 -0.1535 0.7151c-0.0937,0.4345 -0.1872,0.869 -0.2848,1.3027l-0.0057 0.0251 0.1664 0c0.4129,0 0.8256,0 1.2384,0l0.3102 0 -0.0543 0.3053c-0.0769,0.4317 -0.1477,0.8643 -0.2186,1.2968l-0.1019 0.6177zm13.3971 0l2.9563 0c-0.0597,-0.195 -0.1186,-0.3897 -0.1772,-0.585 -0.1302,-0.4334 -0.2599,-0.8669 -0.3899,-1.3003l-0.0469 -0.1568 -0.293 0c-0.8026,0 -1.6053,0 -2.4079,0l-0.0602 0 0.0061 0.0297c0.0892,0.4331 0.1746,0.8671 0.2639,1.3003 0.049,0.2375 0.0987,0.4747 0.1488,0.7121zm6.0807 0l2.9282 0c-0.087,-0.1832 -0.1733,-0.3658 -0.2592,-0.5494 -0.2034,-0.4332 -0.4062,-0.8669 -0.6093,-1.3003l-0.0902 -0.1924 -0.3241 0c-0.8013,0 -1.6027,0 -2.4039,0l-0.0051 0c0.1611,0.43 0.3185,0.8613 0.4798,1.2912 0.094,0.2507 0.1889,0.5007 0.2838,0.7509zm3.5371 -4.2627l-2.5044 0c0.0838,0.1838 0.1676,0.3682 0.2519,0.5519 0.1989,0.4335 0.3979,0.8669 0.5969,1.3005l0.0875 0.1905 0.326 0c0.7923,0 1.5845,0 2.3768,0 -0.2008,-0.3618 -0.4012,-0.7236 -0.602,-1.0852 -0.1774,-0.3192 -0.3548,-0.6389 -0.5327,-0.9577zm-5.3325 0l-2.5311 0 0.1712 0.5879c0.1256,0.433 0.2477,0.8673 0.3735,1.3003l0.0449 0.1547 0.2943 0c0.8108,0 1.6216,0 2.4323,0l0.0048 0c-0.1686,-0.4286 -0.3319,-0.8592 -0.4988,-1.2884 -0.0976,-0.2511 -0.1942,-0.5033 -0.2911,-0.7545zm-21.3825 0l-2.5337 0 -0.2888 0.7535c-0.1654,0.4302 -0.3307,0.8604 -0.4993,1.2894l0.1145 0c0.8094,0 1.6188,0 2.4283,0l0.1886 0 0.0449 -0.1547c0.1259,-0.4331 0.2535,-0.8656 0.3775,-1.2993l0.168 -0.5889z"/>
   <rect id="_121677856" class="fil1" y="7.05898e-005" width="98.6336" height="1.75979"/>
   <rect id="_121681408" class="fil1" x="15.1175" y="71.3357" width="68.3985" height="1.75979"/>
   <path id="_121681744" class="fil0" d="M15.2018 11.3943c0,-0.7953 0.1657,-1.6414 0.7803,-2.1812 0.628,-0.5515 1.5779,-0.6702 2.3719,-0.6702l4.5075 0c1.7839,0 3.1379,0.673 3.27,2.5434l-1.4209 0c-0.0415,-0.2771 -0.1492,-0.5335 -0.3761,-0.7182 -0.4191,-0.3415 -1.1548,-0.3978 -1.6662,-0.3978l-4.3015 0c-0.4071,0 -1.14,0.0367 -1.4579,0.3446 -0.256,0.2458 -0.2968,0.7435 -0.2968,1.0794 0,0.2915 0.0425,0.6911 0.3033,0.8674 0.3924,0.2663 1.294,0.2911 1.7476,0.2911l3.9924 0c0.8552,0 1.9499,0.0981 2.6702,0.6233 0.661,0.482 0.8941,1.2319 0.8941,2.0423l0 0.1859c0,0.7888 -0.148,1.6776 -0.7699,2.2097 -0.6293,0.5388 -1.622,0.6417 -2.408,0.6417l-4.6106 0c-0.7997,0 -1.6465,-0.1548 -2.2797,-0.6951 -0.588,-0.5068 -0.831,-1.2104 -0.8676,-1.9727l1.4141 0c0.0281,0.3168 0.1285,0.6223 0.3787,0.8314 0.4173,0.3502 1.1493,0.409 1.6636,0.409l4.2243 0c0.4561,0 1.0485,-0.0582 1.4247,-0.354 0.3327,-0.2615 0.4201,-0.6854 0.4201,-1.0966 0,-0.3731 -0.061,-0.8318 -0.3653,-1.0791 -0.3508,-0.2854 -1.1192,-0.3184 -1.544,-0.3184l-4.4947 0c-0.7935,0 -1.9099,-0.084 -2.5406,-0.645 -0.5333,-0.4765 -0.663,-1.2494 -0.663,-1.9409zm12.7378 6.8614l0 -7.0573 1.4103 0 0 7.0573 -1.4103 0zm0 -9.7128l1.4103 0 0 1.4539 -1.4103 0 0 -1.4539zm9.9418 3.7378c0.0699,-0.1322 0.1533,-0.2566 0.2536,-0.36 0.5733,-0.5793 1.438,-0.7223 2.2086,-0.7223l1.4446 0c0.803,0 1.6019,0.1845 2.222,0.737 0.5334,0.4694 0.8077,1.0725 0.8077,1.7958l0 4.5245 -1.4103 0 0 -4.3385c0,-0.4195 -0.1242,-0.7764 -0.4486,-1.0391 -0.3822,-0.3096 -0.9249,-0.385 -1.3962,-0.385l-0.953 0c-0.4998,0 -1.0855,0.0755 -1.4968,0.3947 -0.3638,0.2824 -0.4769,0.7078 -0.4769,1.1621l0 4.2058 -1.4103 0 0 -4.2323c0,-0.4464 -0.1179,-0.85 -0.4675,-1.1316 -0.3819,-0.3079 -0.8778,-0.3987 -1.3516,-0.3987l-1.0045 0c-0.5419,0 -1.1137,0.1102 -1.5231,0.5047 -0.278,0.2646 -0.4248,0.5811 -0.4248,0.9725l0 4.2854 -1.4103 0 0 -7.0573 1.4103 0 0 0.5541c0.5009,-0.42 1.1394,-0.5541 1.7719,-0.5541l1.2643 0c0.6241,0 1.3173,0.0897 1.8575,0.436l0.0336 0.0216 0.0252 0.0315c0.1581,0.1978 0.3161,0.3957 0.4746,0.5932zm9.6933 5.5718l0 3.0854 -1.4104 0 0 -9.7395 1.4104 0 0 0.4078c0.0052,-0.0036 0.0105,-0.0072 0.0158,-0.0108 0.4549,-0.2944 0.9893,-0.397 1.5199,-0.397l2.5758 0c0.8382,0 1.6974,0.1945 2.2896,0.8504 0.4859,0.5445 0.6564,1.2493 0.6564,1.9746l0 1.434c0,0.75 -0.1733,1.4901 -0.7006,2.0337 -0.5875,0.6171 -1.4365,0.7912 -2.2454,0.7912l-2.4985 0c-0.5521,0 -1.1093,-0.1055 -1.5851,-0.4108 -0.0094,-0.0063 -0.0187,-0.0125 -0.0279,-0.019zm8.8547 0.4032l0 -9.7128 1.4103 0 0 9.7128 -1.4103 0zm4.5404 -3.2132l0 0.3883c0,0.4383 0.0835,0.9179 0.4203,1.2205 0.2953,0.2687 0.7222,0.3364 1.1026,0.3364l3.0266 0c0.3146,0 0.6956,-0.0496 0.9401,-0.2752 0.1959,-0.1808 0.2865,-0.4002 0.2865,-0.6709l0 -0.002 1.4103 0 0 0.002c0,0.5579 -0.1759,1.0535 -0.5388,1.4682 -0.5095,0.5811 -1.2312,0.7725 -1.9694,0.7725l-3.1166 0c-1.7769,0 -2.9718,-0.7776 -2.9718,-2.7187l0 -1.7261c0,-0.7229 0.265,-1.3383 0.7692,-1.8389 0.5968,-0.5944 1.3574,-0.8267 2.1768,-0.8267l2.6788 0c0.8015,0 1.6034,0.1846 2.21,0.755 0.5139,0.4799 0.7618,1.091 0.7618,1.8043l0 1.3113 -7.1864 0zm10.5999 3.2132l-1.4103 0 0 -9.7128 1.4103 0 0 9.7128zm7.4961 -8.2854l0 8.2854 -1.4103 0 0 -8.2854 -4.3401 0 0 -1.4274 10.1163 0 0 1.4274 -4.3659 0zm-31.542 4.7701l0.0509 0.7078 0 0.0092c0,0.409 0.1,0.7919 0.389,1.0836 0.3496,0.3536 0.8595,0.4467 1.3313,0.4467l2.0649 0c0.4656,0 1.0488,-0.0644 1.4285,-0.3718 0.344,-0.2785 0.4335,-0.7287 0.4335,-1.1585l0 -1.434c0,-0.4363 -0.1012,-0.864 -0.4469,-1.1458 -0.3832,-0.3122 -0.9425,-0.3845 -1.4151,-0.3845l-2.0521 0c-0.4529,0 -0.9727,0.0798 -1.3143,0.4158 -0.3048,0.2998 -0.4188,0.686 -0.4188,1.1145l0 0.0092 -0.0509 0.7078zm19.2099 -0.9926c-0.0334,-0.3266 -0.1395,-0.6341 -0.3702,-0.8787 -0.2894,-0.3068 -0.6849,-0.4025 -1.0889,-0.4025l-2.9107 0c-0.3882,0 -0.7365,0.1108 -1.0117,0.4026 -0.2306,0.2445 -0.3368,0.552 -0.3702,0.8786l5.7517 0z"/>
   <path id="_121680496" class="fil0" d="M45.8232 31.2559l0.6124 0c0.1299,0.032 0.2626,0.0539 0.3901,0.096 0.5443,0.1697 1.0384,0.4678 1.4947,0.8042 0.245,0.1811 0.4793,0.3765 0.7045,0.5817 0.1006,0.0857 0.1898,0.1841 0.2917,0.2681 0.1112,-0.0932 0.2104,-0.1997 0.3207,-0.2943 0.3951,-0.3555 0.8163,-0.685 1.2755,-0.9541 0.3042,-0.1799 0.6278,-0.3298 0.9682,-0.4265 0.1047,-0.0298 0.2119,-0.0491 0.3175,-0.0751l0.6121 0c0.1346,0.0362 0.2717,0.0677 0.398,0.1289 0.3707,0.1656 0.6476,0.4949 0.8078,0.8621 0.1115,0.2586 0.1799,0.5346 0.2128,0.814 0.0418,0.2766 0.038,0.5572 0.0333,0.8362 -0.0276,0.5403 -0.1131,1.0768 -0.2364,1.6032 -0.0169,0.0676 -0.0399,0.1346 -0.0406,0.2051 0.1789,0.0448 0.3539,0.1034 0.5285,0.1621 0.6283,0.2124 1.2449,0.4809 1.7871,0.8673 0.3233,0.2329 0.6204,0.5146 0.8203,0.8626 0.1383,0.2471 0.223,0.5285 0.2174,0.8133 -0.003,0.2708 -0.0849,0.5373 -0.2182,0.7717 -0.1959,0.3471 -0.4913,0.6259 -0.8116,0.8578 -0.4508,0.3223 -0.9549,0.5615 -1.4713,0.7581 -0.2029,0.0745 -0.4066,0.1473 -0.6143,0.2079 -0.0797,0.0248 -0.1611,0.045 -0.239,0.0755 0.014,0.1169 0.0524,0.229 0.0748,0.3444 0.0704,0.3246 0.1299,0.652 0.1635,0.9828 0.0201,0.1944 0.0428,0.3891 0.0418,0.585 -0.0002,0.1481 0.0026,0.2966 -0.005,0.4449 -0.0257,0.2963 -0.0652,0.594 -0.1611,0.8767 -0.1259,0.3942 -0.3642,0.7668 -0.7207,0.9885 -0.1712,0.1141 -0.3699,0.1736 -0.568,0.2208l-0.6114 0c-0.1408,-0.0344 -0.2836,-0.0609 -0.4214,-0.1063 -0.4636,-0.1482 -0.8905,-0.392 -1.2887,-0.6685 -0.3058,-0.2141 -0.5969,-0.449 -0.8724,-0.7004 -0.1028,-0.0882 -0.1935,-0.1898 -0.2991,-0.2743 -0.1102,0.0891 -0.2056,0.1949 -0.3133,0.2873 -0.2983,0.2706 -0.614,0.5229 -0.9476,0.7486 -0.3128,0.2116 -0.644,0.3984 -0.9961,0.5361 -0.206,0.0814 -0.4214,0.1352 -0.6385,0.1775l-0.598 0c-0.1881,-0.0459 -0.3771,-0.1007 -0.542,-0.2054 -0.348,-0.2061 -0.5895,-0.5573 -0.7226,-0.9337 -0.1141,-0.315 -0.1635,-0.6491 -0.1867,-0.9821 -0.0048,-0.2688 -0.0107,-0.5387 0.0197,-0.8065 0.0352,-0.4324 0.1106,-0.8608 0.2082,-1.2832 0.0173,-0.0772 0.0414,-0.153 0.0491,-0.2319 -0.1601,-0.0609 -0.3285,-0.0965 -0.4896,-0.1547 -0.3001,-0.102 -0.5965,-0.2144 -0.8846,-0.3464 -0.443,-0.2033 -0.8716,-0.4489 -1.2394,-0.7713 -0.2916,-0.2572 -0.5442,-0.575 -0.665,-0.9491 -0.1027,-0.3097 -0.1016,-0.6528 0.0069,-0.9609 0.1282,-0.3854 0.3982,-0.7052 0.7022,-0.9665 0.3625,-0.3094 0.7817,-0.5451 1.2136,-0.7426 0.4184,-0.19 0.8535,-0.3412 1.2943,-0.4702 0.0204,-0.0103 0.0617,-0.0144 0.0575,-0.045 -0.0116,-0.1052 -0.0505,-0.2052 -0.0681,-0.3096 -0.1048,-0.4702 -0.1754,-0.9481 -0.205,-1.429 -0.004,-0.1819 -0.0053,-0.3641 0.0003,-0.546 0.0274,-0.4234 0.0975,-0.8534 0.2888,-1.2363 0.161,-0.3261 0.4205,-0.6125 0.7545,-0.7651 0.1291,-0.0632 0.2695,-0.0974 0.4079,-0.1334m-0.2837 0.8742c-0.1889,0.1618 -0.3006,0.3949 -0.3673,0.6305 -0.0691,0.2584 -0.1039,0.526 -0.105,0.7935 -0.0134,0.6646 0.1048,1.3237 0.2617,1.9673 0.0726,0.0017 0.1416,-0.0233 0.212,-0.0377 0.6304,-0.1312 1.2684,-0.2243 1.9095,-0.2842 0.0208,-0.0003 0.0324,-0.0188 0.0441,-0.0333 0.3717,-0.5246 0.7724,-1.0289 1.2011,-1.5081 0.0431,-0.0482 0.0907,-0.0924 0.1281,-0.1453 -0.0441,-0.0599 -0.1047,-0.1045 -0.1563,-0.1575 -0.4263,-0.3936 -0.8809,-0.7627 -1.3883,-1.0474 -0.3268,-0.1789 -0.678,-0.3353 -1.0534,-0.3674 -0.2409,-0.0241 -0.4985,0.0301 -0.6862,0.1896m6.2281 -0.0231c-0.2713,0.1109 -0.5259,0.2587 -0.7704,0.4195 -0.4145,0.2794 -0.7974,0.6032 -1.1579,0.9488 -0.01,0.0115 -0.0237,0.022 -0.0264,0.0377 0.026,0.0481 0.0703,0.0824 0.1056,0.1233 0.4314,0.481 0.8351,0.9868 1.2088,1.5138 0.0155,0.0188 0.0277,0.0479 0.0557,0.0495 0.694,0.0639 1.3851,0.1672 2.0658,0.3182 0.0178,0.0033 0.0363,0.0021 0.0546,0.001 0.0949,-0.3812 0.174,-0.7671 0.2192,-1.1576 0.0296,-0.2358 0.0473,-0.4733 0.0439,-0.7111 0.0041,-0.2804 -0.0237,-0.562 -0.091,-0.8345 -0.0582,-0.2282 -0.1535,-0.4536 -0.3179,-0.626 -0.1448,-0.1513 -0.3492,-0.2383 -0.557,-0.2508 -0.2867,-0.0191 -0.5698,0.0609 -0.833,0.1682m-2.4591 1.9195c-0.0156,0.0109 -0.0286,0.0252 -0.0416,0.0388 -0.2877,0.3207 -0.565,0.651 -0.8266,0.9934 -0.0171,0.0223 -0.0307,0.0469 -0.044,0.0717 0.0744,0.006 0.1484,-0.0067 0.2228,-0.0071 0.1504,-0.0011 0.3007,-0.007 0.4512,-0.007 0.31,-0.0084 0.6202,0.0033 0.9303,0.0067 0.0789,-0.0006 0.1575,0.0135 0.2366,0.0074 -0.0213,-0.043 -0.0501,-0.0812 -0.0797,-0.1185 -0.2559,-0.3303 -0.5239,-0.6512 -0.8045,-0.9608 -0.013,-0.01 -0.0253,-0.0326 -0.0445,-0.0246m-0.5334 1.792c-0.2985,0.0086 -0.5969,0.0215 -0.8944,0.0453 -0.0225,0.0008 -0.0344,0.0228 -0.0474,0.0379 -0.5289,0.7796 -1.0019,1.5973 -1.4125,2.4453 -0.0224,0.0339 -0.0104,0.073 0.0082,0.1054 0.4009,0.8195 0.8563,1.6124 1.3655,2.3695 0.022,0.0319 0.0413,0.0665 0.0697,0.0936 0.6191,0.0484 1.2418,0.061 1.8631,0.0494 0.3416,-0.0003 0.6822,-0.0272 1.0229,-0.045 0.0246,0.0004 0.0361,-0.0244 0.0498,-0.0405 0.4984,-0.7344 0.945,-1.5035 1.3405,-2.2978 0.0271,-0.0627 0.0664,-0.1204 0.0857,-0.1861 -0.0062,-0.0507 -0.0379,-0.0942 -0.0583,-0.1403 -0.4004,-0.815 -0.8578,-1.602 -1.3677,-2.3535 -0.0131,-0.0151 -0.0249,-0.038 -0.0474,-0.0385 -0.3958,-0.0299 -0.7927,-0.0467 -1.1898,-0.0492 -0.2626,-0.0126 -0.5254,0.0026 -0.7879,0.0045m-2.3453 0.2111c-0.3014,0.0493 -0.6025,0.1022 -0.8999,0.1718 0.0118,0.0776 0.0439,0.1497 0.0671,0.2243 0.0697,0.2177 0.1506,0.4319 0.2302,0.6461 0.0685,0.1635 0.1244,0.3327 0.2033,0.4915 0.2661,-0.5025 0.5467,-0.9976 0.8494,-1.479 0.0259,-0.0392 0.0516,-0.0786 0.0714,-0.1213 -0.1755,0.0052 -0.3477,0.0444 -0.5215,0.0666m5.2522 -0.0692c0.0213,0.05 0.0526,0.0948 0.0818,0.1406 0.2979,0.476 0.5761,0.9642 0.8378,1.4608 0.0102,-0.0123 0.0186,-0.0262 0.0246,-0.0413 0.1493,-0.3639 0.2915,-0.7311 0.4133,-1.1052 0.0224,-0.071 0.0528,-0.1401 0.0642,-0.2143 -0.4189,-0.0967 -0.8437,-0.1662 -1.2693,-0.2263 -0.0505,-0.0082 -0.1014,-0.0136 -0.1524,-0.0143m-6.9456 0.4424c-0.5796,0.1731 -1.1508,0.3874 -1.676,0.6905 -0.3176,0.1892 -0.625,0.4112 -0.8504,0.7085 -0.1373,0.1862 -0.2358,0.4149 -0.2153,0.6504 0.0211,0.2488 0.155,0.4728 0.3201,0.6539 0.2988,0.3264 0.6824,0.5601 1.0746,0.7574 0.4655,0.2273 0.9547,0.4052 1.454,0.5417 0.0526,-0.1446 0.0959,-0.2925 0.147,-0.4378 0.1818,-0.5196 0.3856,-1.0318 0.6172,-1.5311 0.0095,-0.0223 0.0171,-0.0479 0.0065,-0.071 -0.0251,-0.0649 -0.0571,-0.1266 -0.0838,-0.1906 -0.2373,-0.5313 -0.4473,-1.0747 -0.6296,-1.6274 -0.019,-0.0578 -0.0296,-0.119 -0.06,-0.1723 -0.0352,0.0078 -0.0702,0.0163 -0.1043,0.0278m9.0562 -0.0276c-0.0064,0.0116 -0.0122,0.0236 -0.0174,0.036 -0.2057,0.6531 -0.4568,1.2918 -0.7402,1.9151 -0.0144,0.0316 -0.0314,0.068 -0.0133,0.1019 0.2662,0.5738 0.4974,1.1638 0.697,1.7641 0.0241,0.0708 0.0408,0.1442 0.0714,0.2128 0.0895,-0.0184 0.175,-0.0516 0.263,-0.0758 0.3189,-0.0985 0.6337,-0.2122 0.9388,-0.3481 0.4063,-0.1822 0.8044,-0.3964 1.1406,-0.6918 0.1638,-0.1481 0.32,-0.313 0.4143,-0.5153 0.0911,-0.1797 0.1211,-0.3923 0.0677,-0.5877 -0.0669,-0.2505 -0.2321,-0.4609 -0.4175,-0.6363 -0.395,-0.3685 -0.8831,-0.6172 -1.3768,-0.8254 -0.3359,-0.1347 -0.6779,-0.2561 -1.0276,-0.3495m-7.8497 3.0394c-0.1131,0.2835 -0.2213,0.569 -0.3193,0.8582 -0.0354,0.1011 -0.0726,0.2025 -0.093,0.3079 0.3528,0.0764 0.7077,0.1445 1.0653,0.1951 0.1178,0.0167 0.2353,0.04 0.3548,0.0413 -0.0416,-0.0831 -0.0972,-0.1582 -0.1431,-0.2388 -0.2786,-0.442 -0.5304,-0.9002 -0.777,-1.3604 -0.0369,0.0618 -0.0598,0.1305 -0.0877,0.1967m6.6599 -0.1967c-0.2268,0.422 -0.4567,0.843 -0.7085,1.2508 -0.0701,0.1172 -0.1486,0.2298 -0.2121,0.3508 0.1073,-0.0026 0.2128,-0.0232 0.3188,-0.0379 0.3699,-0.0519 0.7372,-0.1211 1.1021,-0.2005 -0.0259,-0.1266 -0.0743,-0.2472 -0.1149,-0.3695 -0.0532,-0.1625 -0.1157,-0.3216 -0.1743,-0.4822 -0.0691,-0.171 -0.1286,-0.3464 -0.2111,-0.5115m-7.2736 2.0419c-0.181,0.7398 -0.3104,1.5042 -0.2468,2.2679 0.0316,0.29 0.0898,0.5841 0.2316,0.8423 0.0909,0.1617 0.2211,0.3079 0.3912,0.3878 0.1867,0.0884 0.4008,0.1046 0.6031,0.0732 0.2609,-0.0351 0.5088,-0.1309 0.7462,-0.2412 0.2748,-0.1342 0.535,-0.2968 0.782,-0.4769 0.3164,-0.226 0.6114,-0.4808 0.8932,-0.7484 0.0327,-0.0309 0.0682,-0.0594 0.0942,-0.0965 -0.0394,-0.0555 -0.0892,-0.1024 -0.1343,-0.1529 -0.416,-0.4642 -0.804,-0.9532 -1.1661,-1.4604 -0.0178,-0.0234 -0.0336,-0.0497 -0.0578,-0.0671 -0.0284,-0.0089 -0.0585,-0.0095 -0.0878,-0.0124 -0.6656,-0.0677 -1.3291,-0.1643 -1.9821,-0.3108 -0.0221,-0.0036 -0.0444,-0.0039 -0.0666,-0.0046m7.7743 0.0345c-0.6308,0.1345 -1.2705,0.224 -1.9121,0.2877 -0.0342,0.0004 -0.0512,0.0335 -0.0699,0.0567 -0.3694,0.5179 -0.7649,1.0177 -1.1907,1.4905 -0.0388,0.0461 -0.0885,0.0848 -0.1171,0.1385 0.0058,0.0275 0.0364,0.0433 0.0546,0.0641 0.5016,0.4766 1.0452,0.9203 1.6647,1.2353 0.2717,0.1314 0.5588,0.2434 0.8616,0.2723 0.2382,0.0251 0.4948,-0.023 0.6843,-0.1768 0.1614,-0.1306 0.2685,-0.316 0.3383,-0.5092 0.1012,-0.2836 0.1401,-0.5859 0.1486,-0.8858 0.0174,-0.678 -0.101,-1.3514 -0.2617,-2.0076 -0.0686,-0.0003 -0.1342,0.0208 -0.2006,0.0343m-4.7065 0.3568c0.0251,0.0553 0.0667,0.1001 0.103,0.1483 0.2529,0.3242 0.5155,0.6414 0.795,0.9431 0.0136,0.0221 0.0388,0.0107 0.0503,-0.0068 0.2764,-0.3003 0.5374,-0.6144 0.7881,-0.9363 0.0364,-0.0479 0.0778,-0.093 0.1029,-0.1482 -0.0695,-0.0046 -0.139,0.0015 -0.2083,0.004 -0.3556,0.009 -0.7114,0.0138 -1.0671,0.0075 -0.1881,-0.0011 -0.376,-0.0123 -0.5639,-0.0116z"/>
   <path id="_121679848" class="fil0" d="M49.1584 36.9695c0.2459,-0.0225 0.4981,0.008 0.7254,0.1076 0.2264,0.0974 0.4261,0.2556 0.5743,0.4523 0.1405,0.1825 0.2298,0.4015 0.2707,0.6275 0.0437,0.2891 0.0055,0.5932 -0.1254,0.8562 -0.1866,0.3923 -0.5631,0.6877 -0.9887,0.7754 -0.1334,0.0332 -0.2719,0.0327 -0.4082,0.0273 -0.4801,-0.0335 -0.9316,-0.3298 -1.1535,-0.7569 -0.111,-0.2066 -0.1676,-0.4412 -0.1655,-0.6754 -0.0037,-0.4528 0.2301,-0.8979 0.5998,-1.1579 0.1975,-0.1401 0.4304,-0.2293 0.6711,-0.2561z"/>
  </g>
 </g>
</svg>
